<svg xmlns="http://www.w3.org/2000/svg" xmlns:svg="http://www.w3.org/2000/svg" id="svg917" width="580" height="250" version="1.1" viewBox="0 0 580 250"><metadata id="metadata923"/><defs id="defs921"><rect id="rect931" width="390.455" height="115.933" x="25.842" y="83.986"/></defs><g id="g925"><rect style="fill:#27aae1;fill-opacity:1;stroke:#cfcfcf;stroke-width:1.90035;stroke-linejoin:round" id="rect847" width="578.1" height="248.1" x=".95" y=".95"/><g id="g52" transform="translate(-0.91905221)"><text id="text843" x="151.585" y="152.695" transform="scale(0.98203138,1.0182974)" xml:space="preserve" style="font-weight:700;font-size:88.8356px;line-height:1.25;font-family:'Segoe UI';-inkscape-font-specification:'Segoe UI Bold';stroke-width:1.04104"><tspan style="font-size:88.8356px;fill:#fff;fill-opacity:1;stroke-width:1.04104" id="tspan841" x="151.585" y="152.695">Just Read</tspan></text><g style="fill:none;fill-opacity:1" id="g924" transform="matrix(0.6225544,0,0,0.6225544,-211.04021,35.4922)"><g id="g940"><path id="path901" d="m 481.94953,203.8578 -0.57103,-94.21999 c 0,0 4.89342,-21.989393 -64.64934,-26.412514 l 0.69395,110.353954 c 0,0 27.98049,-5.7103 64.52642,10.27855 z m 0,0 0.57103,-94.21999 c 0,0 -4.89342,-21.989393 64.64934,-26.412514 l -0.69395,110.353954 c 0,0 -27.98049,-5.7103 -64.52642,10.27855 z" style="fill:#fff;fill-opacity:1;stroke:#000;stroke-width:2;stroke-linecap:butt;stroke-linejoin:miter;stroke-miterlimit:4;stroke-dasharray:none;stroke-opacity:1"/><path id="path855" d="m 470.52893,114.20605 c 0,0 -22.84121,-14.275756 -41.68521,-8.56545 m 64.52641,8.56545 c 0,0 22.84121,-14.275756 41.68521,-8.56545" style="fill:none;fill-opacity:1;stroke:#000;stroke-width:2;stroke-linecap:round;stroke-linejoin:miter;stroke-miterlimit:4;stroke-dasharray:none;stroke-opacity:1"/><path style="fill:none;fill-opacity:1;stroke:#000;stroke-width:2;stroke-linecap:round;stroke-linejoin:miter;stroke-miterlimit:4;stroke-dasharray:none;stroke-opacity:1" id="path855-5" d="m 471.38547,132.02161 c 0,0 -22.84121,-14.27575 -41.68521,-8.56545 m 62.81333,8.56545 c 0,0 22.84121,-14.27575 41.68521,-8.56545"/><path id="path855-5-2" d="m 470.24342,148.8656 c 0,0 -22.84121,-14.27575 -41.68521,-8.56545 m 65.09743,8.56545 c 0,0 22.84121,-14.27575 41.68521,-8.56545" style="fill:none;fill-opacity:1;stroke:#000;stroke-width:2;stroke-linecap:round;stroke-linejoin:miter;stroke-miterlimit:4;stroke-dasharray:none;stroke-opacity:1"/><path id="path855-5-4" d="m 470.81444,164.85445 c 0,0 -22.84121,-14.27575 -41.68521,-8.56545 m 63.95539,8.56545 c 0,0 22.84121,-14.27575 41.68521,-8.56545" style="fill:none;fill-opacity:1;stroke:#000;stroke-width:2;stroke-linecap:round;stroke-linejoin:miter;stroke-miterlimit:4;stroke-dasharray:none;stroke-opacity:1"/><path style="fill:none;fill-opacity:1;stroke:#000;stroke-width:2;stroke-linecap:round;stroke-linejoin:miter;stroke-miterlimit:4;stroke-dasharray:none;stroke-opacity:1" id="path855-5-4-4" d="m 470.81444,180.27227 c 0,0 -22.84121,-14.27575 -41.68521,-8.56545 m 63.95539,8.56545 c 0,0 22.84121,-14.27575 41.68521,-8.56545"/></g></g></g></g></svg>
